<svg xmlns="http://www.w3.org/2000/svg" xml:space="preserve" width="2000" height="116" data-id="lg_H1WFuP9ZKMq7IhSY5i" data-version="1" viewBox="0 0 2000 116"><g data-padding="20"><g transform="translate(12.333 2.203)scale(.96201)"><path fill="#02143c" d="M808.556-.137a58.137 58.137 0 1 0 0 116.274 58.137 58.137 0 1 0 0-116.274"/><rect width="430.455" height="113" x="415.188" y="-398.27" fill="none" rx="0" ry="0" transform="translate(465.27 399.8)"/><path fill="#02143c" d="M884.956 89.44v-1h.5q.7 0 1.3-.6t1.05-1.4.65-1.75.2-1.75v-53.2q0-.7-.2-1.6t-.65-1.75-1.1-1.4-1.45-.55h-.5v-1h16.4q9.3 0 14.55 4.1t5.25 10.9q0 2.9-1 5.2t-2.55 4.1-3.35 3.05-3.4 2.05q4.2.8 7 2.7t4.55 4.35 2.45 5.25.7 5.5q0 5.2-1.9 8.75t-5.05 5.8-7.2 3.25-8.35 1Zm33.6-17.1v-1.1q-.8-7.7-5.2-11.9t-12.4-4.2h-5.6v31h5.8q8.1 0 12.75-3.65t4.65-10.15m-4.1-32.3v-.7q-.3-5.8-4.05-9.2t-10.05-3.4h-5v25.2h5.2q4.2 0 6.85-1.1t4.25-2.85 2.2-3.85.6-4.1m40.4 50.1q-5 0-9-1.65t-6.85-4.5-4.4-6.75-1.55-8.5q0-4.9 1.7-8.95t4.7-6.95 7.1-4.5 8.9-1.6 8.8 1.55 6.9 4.35 4.5 6.65 1.6 8.45q0 4.3-1.45 8.35t-4.3 7.15-7 5-9.65 1.9m-.6-40.1q-3.6.2-6.35 1.75t-4.6 4-2.8 5.55-.95 6.3q0 3.7 1.15 7.15t3.3 6.15 5.15 4.3 6.7 1.6 6.55-1.6 4.75-4.15 2.85-5.75.95-6.4q0-3.3-1-6.65t-3.1-6.1-5.25-4.45-7.35-1.7m46.3 39.4h-13v-1q.8 0 1.4-.6t1-1.4.6-1.75.2-1.75v-27.7q0-1.7-.5-3.25t-2.9-1.65v-.9l10-3.2v36.7q0 .8.2 1.75t.6 1.75 1 1.4 1.4.6Zm-12.5-52.8q0-2 1.35-3.4t3.35-1.4 3.4 1.4 1.4 3.4-1.4 3.3-3.4 1.3-3.35-1.3-1.35-3.3m36.7 52.8h-13.1v-1q.8 0 1.4-.6t1.05-1.4.65-1.75.2-1.75v-51.2q0-1.7-.5-3.2t-3-1.6v-1l10.1-3.1v60.1q0 .8.2 1.75t.65 1.75 1 1.4 1.35.6Zm49.8-20.2h-34.7q.4 3.5 1.7 6.65t3.45 5.55 5.25 3.85 7.2 1.45q2.2 0 4.65-.65t4.55-1.85 3.75-2.95 2.25-3.95h.9v7.5q-.6 0-1.35.4t-1.75 1q-2 1.2-5.4 2.55t-9 1.35q-4.5 0-8.55-1.3t-7.15-4-4.95-6.9-1.85-10q0-3.7 1.25-7.5t3.8-6.85 6.55-4.95 9.6-1.9q5 0 8.75 1.7t6.2 4.7 3.65 7.1 1.2 9m-20.2-19.2q-3.5 0-6.05 1.4t-4.35 3.6-2.8 5-1.3 5.6h28.5q-.1-2.9-1.05-5.7t-2.65-5-4.3-3.55-6-1.35m55.9-1.4-3 6.1q-1.2-2-2.5-2.5t-3-.5q-1.1 0-2.35.5t-2.45 1.3-2.35 1.75-1.95 1.75v26q0 .8.2 1.7t.65 1.75 1 1.4 1.35.55v1h-13v-1q.7 0 1.3-.55t1.05-1.4.65-1.75.2-1.7v-27.9q0-1.4-.9-2.8t-2.6-1.8v-.8l10.1-3v6q.9-1.1 1.9-2.15t2.25-1.9 2.75-1.4 3.5-.55q1.4 0 3.6.6t3.6 1.3m27.6-1.9q5.4 0 9.35 1.85t6.6 4.85 3.95 6.9 1.3 8q0 4-1.25 7.9t-3.8 7-6.35 5-9 1.9q-3.1 0-6.35-1.65t-5.85-4.15v19.6q0 .8.2 1.75t.65 1.75 1 1.4 1.35.6v1h-13v-1q.7 0 1.3-.6t1.05-1.4.65-1.75.2-1.75v-50.6q0-.9-.05-1.75t-.35-1.5-.95-1.1-1.85-.55v-1h9.8v4.4q2-2.4 4.85-3.75t6.55-1.35m.9 40q3.5-.1 6.1-1.6t4.3-3.9 2.5-5.35.8-6.15q0-3.6-1-7.1t-2.9-6.25-4.65-4.5-6.25-1.75q-2.1 0-4.15.8t-3.6 2.3-2.5 3.55-.95 4.55v13.1q0 2.7 1.1 4.95t2.85 3.9 3.95 2.55 4.4.9m42.8 2.7h-13.1v-1q.8 0 1.4-.6t1.05-1.4.65-1.75.2-1.75v-51.2q0-1.7-.5-3.2t-3-1.6v-1l10.1-3.1v60.1q0 .8.2 1.75t.65 1.75 1 1.4 1.35.6Zm45.7 0h-9.7v-5.1l-.5.5q-2.5 2.5-5.75 3.9t-7.85 1.4q-3.5 0-6-.8t-4.1-2.25-2.35-3.35-.75-4q0-3.4 1.85-6t5.35-4.6 8.55-3.65 11.55-3.25q-.2-3.9-1.6-6.3t-3.3-3.75-4-1.8-3.6-.45q-2.6 0-4.55.8t-3.4 2.05-2.45 2.7-1.6 2.75h-.9v-7.3q.8-.1 1.5-.5t1.7-.8q1.5-.6 4.1-1.75t7.3-1.15q5.5 0 8.9 1.4t5.25 3.7 2.45 5.25.6 6.05v19.8q0 2 .9 3.75t2.4 1.75Zm-10.8-8.3 1.1-1.2v-14.3l-1 .2q-2.4.6-5.85 1.6t-6.55 2.6-5.3 3.8-2.2 5.1q0 3.2 2.6 5.3t6.8 2.1q3.3 0 5.8-1.45t4.6-3.75m41.4-30.3h-11.2v24.1q0 2.6.1 4.7t.5 3.5 1.2 2.15 2.2.75q2.1 0 3.95-2t2.35-4.8h.9v7.3q-.9 0-1.5.6-.8.7-2.25 1.5t-4.35.8q-3.6 0-5.6-1.4t-2.9-3.7-1.05-5.1-.15-5.7v-22.7h-5.6v-3.4h5.6v-8.9q0-1.7-.45-3.15t-2.95-1.55v-1l10-3.2v17.8h11.2Zm47.7 18.4h-34.7q.4 3.5 1.7 6.65t3.45 5.55 5.25 3.85 7.2 1.45q2.2 0 4.65-.65t4.55-1.85 3.75-2.95 2.25-3.95h.9v7.5q-.6 0-1.35.4t-1.75 1q-2 1.2-5.4 2.55t-9 1.35q-4.5 0-8.55-1.3t-7.15-4-4.95-6.9-1.85-10q0-3.7 1.25-7.5t3.8-6.85 6.55-4.95 9.6-1.9q5 0 8.75 1.7t6.2 4.7 3.65 7.1 1.2 9m-20.2-19.2q-3.5 0-6.05 1.4t-4.35 3.6-2.8 5-1.3 5.6h28.5q-.1-2.9-1.05-5.7t-2.65-5-4.3-3.55-6-1.35"/><rect width="32.237" height="73.45" x="614.297" y="-378.495" fill="none" rx="0" ry="0" transform="translate(178.87 399.49)"/><path fill="#fff" d="M797.596 79.46v-.65h.33q.45 0 .84-.39t.69-.91q.29-.52.42-1.14t.13-1.14V40.65q0-.45-.13-1.04-.13-.58-.42-1.13-.3-.56-.72-.91-.42-.36-.94-.36h-.33v-.65h10.66q6.05 0 9.46 2.66 3.41 2.67 3.41 7.09 0 1.88-.65 3.38-.65 1.49-1.65 2.66-1.01 1.17-2.18 1.99-1.17.81-2.21 1.33 2.73.52 4.55 1.75 1.82 1.24 2.96 2.83 1.13 1.59 1.59 3.41.45 1.82.45 3.58 0 3.38-1.23 5.69-1.24 2.3-3.28 3.77-2.05 1.46-4.68 2.11-2.64.65-5.43.65Zm21.84-11.12v-.71q-.52-5.01-3.38-7.74t-8.06-2.73h-3.64v20.15h3.77q5.27 0 8.29-2.37t3.02-6.6m-2.66-20.99v-.46q-.2-3.77-2.63-5.98-2.44-2.21-6.54-2.21h-3.25v16.38h3.38q2.73 0 4.46-.71 1.72-.72 2.76-1.85 1.04-1.14 1.43-2.51.39-1.36.39-2.66"/></g><path fill="transparent" stroke="transparent" stroke-width=".998" d="M724.507.137h558.68v115.726h-558.68z"/></g></svg>