<svg width="17" height="19" viewBox="0 0 17 19" fill="none" xmlns="http://www.w3.org/2000/svg">
<path d="M15.7305 16C15.7305 16.7956 15.3842 17.5587 14.7678 18.1213C14.1513 18.6839 13.3153 19 12.4435 19H4.77397C3.90221 19 3.06616 18.6839 2.44974 18.1213C1.83331 17.5587 1.48701 16.7956 1.48701 16V4H0.391357V1H5.32179L6.41744 0H10.8001L11.8957 1H16.8261V4H15.7305V16ZM2.58266 4V16C2.58266 16.5304 2.81353 17.0391 3.22448 17.4142C3.63543 17.7893 4.1928 18 4.77397 18H12.4435C13.0247 18 13.5821 17.7893 13.993 17.4142C14.404 17.0391 14.6348 16.5304 14.6348 16V4H2.58266ZM15.7305 3V2H11.3479L10.2522 1H6.96527L5.86962 2H1.48701V3H15.7305ZM4.77397 6H5.86962V16H4.77397V6ZM11.3479 6H12.4435V16H11.3479V6Z" fill="#FB3311"/>
</svg>
