<svg width="22" height="20" viewBox="0 0 22 20" fill="none" xmlns="http://www.w3.org/2000/svg">
<path fill-rule="evenodd" clip-rule="evenodd" d="M21.3996 3.16534C21.5037 3.30955 21.5501 3.48212 21.5309 3.65393C21.5117 3.82573 21.4282 3.98624 21.2944 4.10834L11.2221 13.3003C11.119 13.3943 10.9905 13.4616 10.8496 13.4953L6.6543 14.4953C6.51562 14.5284 6.3699 14.5277 6.23159 14.4934C6.09328 14.4591 5.9672 14.3924 5.86586 14.2999C5.76452 14.2075 5.69145 14.0924 5.65389 13.9661C5.61634 13.8399 5.61561 13.7069 5.65178 13.5803L6.74743 9.75234C6.78019 9.6377 6.84044 9.53114 6.92383 9.44034L17.0334 0.21934C17.1875 0.0788896 17.3963 0 17.6141 0C17.8319 0 18.0407 0.0788896 18.1948 0.21934L21.2944 3.04734C21.3327 3.08418 21.3679 3.12363 21.3996 3.16534ZM19.5512 3.57734L17.6141 1.81034L8.28134 10.3283L7.59656 12.7213L10.2185 12.0963L19.5512 3.57734Z" fill="#8C52FF"/>
<path d="M19.4121 14.9093C19.7115 12.5733 19.8072 10.2192 19.698 7.86934C19.6955 7.81396 19.7055 7.75869 19.7276 7.70705C19.7497 7.65541 19.7832 7.60851 19.8262 7.56934L20.9043 6.58534C20.9338 6.5583 20.9712 6.5396 21.012 6.53149C21.0528 6.52338 21.0954 6.52619 21.1345 6.53961C21.1736 6.55302 21.2076 6.57646 21.2325 6.6071C21.2574 6.63774 21.272 6.67429 21.2747 6.71234C21.477 9.50359 21.4 12.3059 21.0446 15.0843C20.786 17.1063 19.0067 18.6913 16.8011 18.9163C12.9722 19.3031 9.10819 19.3031 5.27925 18.9163C3.0748 18.6913 1.29436 17.1063 1.03579 15.0843C0.582308 11.5397 0.582308 7.95897 1.03579 4.41434C1.29436 2.39234 3.0737 0.807344 5.27925 0.582344C8.18541 0.289392 11.1133 0.218145 14.0324 0.369344C14.0742 0.372082 14.1142 0.38569 14.1478 0.408556C14.1814 0.431422 14.207 0.462589 14.2218 0.498365C14.2366 0.534141 14.2398 0.573027 14.2311 0.610419C14.2224 0.647811 14.2021 0.682141 14.1727 0.709344L13.0847 1.70134C13.0421 1.74019 12.9913 1.77063 12.9353 1.79076C12.8793 1.81088 12.8194 1.82028 12.7593 1.81834C10.3234 1.74219 7.88462 1.82742 5.46222 2.07334C4.75437 2.14485 4.09359 2.43207 3.58664 2.8886C3.07968 3.34512 2.75615 3.9443 2.66831 4.58934C2.2288 8.01765 2.2288 11.481 2.66831 14.9093C2.75615 15.5544 3.07968 16.1536 3.58664 16.6101C4.09359 17.0666 4.75437 17.3538 5.46222 17.4253C9.13814 17.8003 12.9422 17.8003 16.6192 17.4253C17.3271 17.3538 17.9879 17.0666 18.4948 16.6101C19.0018 16.1536 19.3242 15.5544 19.4121 14.9093Z" fill="#8C52FF"/>
</svg>
