<svg width="558" height="116" viewBox="0 0 558 116" fill="none" xmlns="http://www.w3.org/2000/svg">
<path d="M65.1716 2.0712C50.3384 2.0712 36.1128 7.96363 25.6242 18.4522C15.1356 28.9408 9.24316 43.1664 9.24316 57.9996C9.24316 72.8327 15.1356 87.0583 25.6242 97.5469C36.1128 108.036 50.3384 113.928 65.1716 113.928C80.0047 113.928 94.2302 108.036 104.719 97.5469C115.207 87.0583 121.1 72.8327 121.1 57.9996C121.1 43.1664 115.207 28.9408 104.719 18.4522C94.2302 7.96363 80.0047 2.0712 65.1716 2.0712Z" fill="#02143C"/>
<path d="M138.669 88.2452V87.2832H139.15C139.599 87.2832 140.016 87.0908 140.401 86.706C140.785 86.3212 141.122 85.8722 141.411 85.3591C141.699 84.8461 141.908 84.2849 142.036 83.6756C142.164 83.0664 142.228 82.5052 142.228 81.9921V30.8132C142.228 30.3642 142.164 29.8512 142.036 29.274C141.908 28.6968 141.699 28.1356 141.411 27.5904C141.122 27.0453 140.769 26.5964 140.352 26.2436C139.936 25.8909 139.471 25.7145 138.958 25.7145H138.477V24.7525H154.254C160.218 24.7525 164.884 26.0673 168.251 28.6968C171.618 31.3262 173.301 34.8216 173.301 39.1827C173.301 41.0425 172.981 42.71 172.339 44.1851C171.698 45.6602 170.88 46.9749 169.886 48.1294C168.892 49.2838 167.818 50.2618 166.664 51.0635C165.509 51.8652 164.419 52.5225 163.393 53.0356C166.086 53.5487 168.331 54.4145 170.127 55.633C171.922 56.8516 173.382 58.2465 174.504 59.8178C175.626 61.3891 176.412 63.0726 176.861 64.8683C177.31 66.6641 177.534 68.4278 177.534 70.1594C177.534 73.4944 176.925 76.3002 175.706 78.577C174.488 80.8537 172.868 82.7136 170.848 84.1566C168.828 85.5996 166.519 86.6418 163.922 87.2832C161.324 87.9245 158.647 88.2452 155.889 88.2452H138.669ZM170.993 71.7948V70.7366C170.479 65.7983 168.812 61.9823 165.99 59.2887C163.168 56.595 159.192 55.2482 154.061 55.2482H148.674V85.0705H154.254C159.448 85.0705 163.537 83.9001 166.519 81.5592C169.501 79.2183 170.993 75.9635 170.993 71.7948ZM167.048 40.7219V40.0485C166.856 36.3287 165.557 33.3785 163.152 31.198C160.747 29.0174 157.524 27.9271 153.484 27.9271H148.674V52.1698H153.676C156.37 52.1698 158.567 51.8171 160.266 51.1116C161.966 50.4061 163.329 49.4922 164.355 48.3699C165.381 47.2475 166.086 46.0129 166.471 44.6661C166.856 43.3193 167.048 42.0046 167.048 40.7219ZM205.913 88.9186C202.707 88.9186 199.821 88.3895 197.255 87.3313C194.69 86.273 192.493 84.83 190.666 83.0022C188.838 81.1744 187.427 79.0099 186.433 76.5086C185.439 74.0074 184.942 71.2817 184.942 68.3316C184.942 65.189 185.487 62.319 186.577 59.7216C187.667 57.1242 189.174 54.8955 191.099 53.0356C193.023 51.1757 195.299 49.7327 197.929 48.7066C200.558 47.6804 203.412 47.1673 206.491 47.1673C209.569 47.1673 212.391 47.6644 214.956 48.6585C217.522 49.6525 219.734 51.0475 221.594 52.8432C223.454 54.639 224.897 56.7714 225.923 59.2406C226.949 61.7097 227.462 64.4194 227.462 67.3696C227.462 70.1273 226.998 72.8049 226.068 75.4023C225.138 77.9998 223.759 80.2926 221.931 82.2807C220.103 84.2689 217.858 85.8722 215.197 87.0908C212.535 88.3093 209.441 88.9186 205.913 88.9186ZM205.336 50.342C203.027 50.4702 200.991 51.0314 199.228 52.0255C197.464 53.0196 195.989 54.3023 194.802 55.8735C193.616 57.4448 192.718 59.2245 192.109 61.2127C191.499 63.2008 191.195 65.2211 191.195 67.2734C191.195 69.6463 191.563 71.9391 192.301 74.1517C193.039 76.3643 194.097 78.3365 195.476 80.0681C196.855 81.7997 198.506 83.1786 200.43 84.2047C202.354 85.2309 204.503 85.7439 206.876 85.7439C209.248 85.7439 211.349 85.2309 213.177 84.2047C215.004 83.1786 216.528 81.8478 217.746 80.2124C218.965 78.577 219.879 76.7331 220.488 74.6808C221.097 72.6285 221.402 70.5763 221.402 68.524C221.402 66.4075 221.081 64.2751 220.44 62.1266C219.798 59.9781 218.804 58.022 217.458 56.2583C216.111 54.4947 214.427 53.0677 212.407 51.9774C210.387 50.8871 208.03 50.342 205.336 50.342ZM249.877 88.2452H237.371V87.2832C237.884 87.2832 238.333 87.0908 238.718 86.706C239.103 86.3212 239.423 85.8722 239.68 85.3591C239.937 84.8461 240.129 84.2849 240.257 83.6756C240.386 83.0664 240.45 82.5052 240.45 81.9921V55.3444C240.45 54.2542 240.289 53.212 239.969 52.2179C239.648 51.2238 238.718 50.6947 237.179 50.6306V49.7648L246.799 46.6863V81.9921C246.799 82.5052 246.863 83.0664 246.991 83.6756C247.12 84.2849 247.312 84.8461 247.569 85.3591C247.825 85.8722 248.146 86.3212 248.531 86.706C248.915 87.0908 249.364 87.2832 249.877 87.2832V88.2452ZM237.852 37.451C237.852 36.1684 238.285 35.0781 239.151 34.1802C240.017 33.2823 241.091 32.8334 242.374 32.8334C243.656 32.8334 244.747 33.2823 245.644 34.1802C246.542 35.0781 246.991 36.1684 246.991 37.451C246.991 38.7337 246.542 39.7919 245.644 40.6257C244.747 41.4594 243.656 41.8763 242.374 41.8763C241.091 41.8763 240.017 41.4594 239.151 40.6257C238.285 39.7919 237.852 38.7337 237.852 37.451ZM273.158 88.2452H260.556V87.2832C261.069 87.2832 261.518 87.0908 261.902 86.706C262.287 86.3212 262.624 85.8722 262.913 85.3591C263.201 84.8461 263.41 84.2849 263.538 83.6756C263.666 83.0664 263.73 82.5052 263.73 81.9921V32.7372C263.73 31.6469 263.57 30.6208 263.249 29.6588C262.929 28.6968 261.967 28.1837 260.363 28.1195V27.1575L270.08 24.1753V81.9921C270.08 82.5052 270.144 83.0664 270.272 83.6756C270.4 84.2849 270.609 84.8461 270.897 85.3591C271.186 85.8722 271.507 86.3212 271.859 86.706C272.212 87.0908 272.645 87.2832 273.158 87.2832V88.2452ZM321.066 68.8126H287.684C287.941 71.0573 288.486 73.1897 289.32 75.2099C290.154 77.2302 291.26 79.0099 292.639 80.5491C294.018 82.0883 295.701 83.3229 297.689 84.2528C299.677 85.1828 301.986 85.6477 304.616 85.6477C306.027 85.6477 307.518 85.4393 309.089 85.0224C310.66 84.6056 312.119 84.0123 313.466 83.2427C314.813 82.4731 316.016 81.5271 317.074 80.4048C318.132 79.2824 318.853 78.0158 319.238 76.6048H320.104V83.8199C319.719 83.8199 319.286 83.9482 318.805 84.2047C318.324 84.4613 317.763 84.7819 317.122 85.1667C315.839 85.9363 314.108 86.7541 311.927 87.6199C309.746 88.4857 306.86 88.9186 303.269 88.9186C300.383 88.9186 297.641 88.5017 295.044 87.668C292.446 86.8342 290.153 85.5515 288.165 83.8199C286.177 82.0883 284.59 79.8757 283.403 77.1821C282.217 74.4884 281.624 71.2817 281.624 67.562C281.624 65.189 282.025 62.784 282.826 60.3469C283.628 57.9098 284.846 55.7132 286.482 53.7571C288.117 51.801 290.218 50.2137 292.783 48.9952C295.348 47.7766 298.427 47.1673 302.018 47.1673C305.225 47.1673 308.031 47.7125 310.436 48.8028C312.841 49.893 314.829 51.4002 316.4 53.3242C317.972 55.2482 319.142 57.525 319.912 60.1545C320.681 62.784 321.066 65.67 321.066 68.8126ZM301.633 50.342C299.389 50.342 297.449 50.7909 295.813 51.6888C294.178 52.5867 292.783 53.7411 291.629 55.152C290.474 56.563 289.576 58.1663 288.935 59.9621C288.294 61.7578 287.877 63.5536 287.684 65.3493H315.102C315.037 63.4894 314.701 61.6616 314.092 59.8659C313.482 58.0701 312.632 56.4668 311.542 55.0558C310.452 53.6449 309.073 52.5065 307.405 51.6407C305.738 50.7749 303.814 50.342 301.633 50.342ZM355.41 48.9952L352.524 54.8634C351.754 53.5807 350.952 52.7791 350.119 52.4584C349.285 52.1377 348.323 51.9774 347.233 51.9774C346.527 51.9774 345.774 52.1377 344.972 52.4584C344.17 52.7791 343.385 53.1959 342.615 53.709C341.846 54.2221 341.092 54.7833 340.354 55.3925C339.617 56.0018 338.992 56.563 338.478 57.076V82.0883C338.478 82.6014 338.543 83.1465 338.671 83.7237C338.799 84.3009 339.008 84.8621 339.296 85.4072C339.585 85.9524 339.905 86.4013 340.258 86.7541C340.611 87.1068 341.044 87.2832 341.557 87.2832V88.2452H329.051V87.2832C329.5 87.2832 329.917 87.1068 330.301 86.7541C330.686 86.4013 331.023 85.9524 331.312 85.4072C331.6 84.8621 331.808 84.3009 331.937 83.7237C332.065 83.1465 332.129 82.6014 332.129 82.0883V55.2482C332.129 54.3504 331.841 53.4525 331.263 52.5546C330.686 51.6567 329.852 51.0795 328.762 50.823V50.0534L338.478 47.1673V52.9394C339.056 52.2339 339.665 51.5445 340.306 50.8711C340.948 50.1977 341.669 49.5884 342.471 49.0433C343.272 48.4981 344.154 48.0492 345.116 47.6965C346.078 47.3437 347.201 47.1673 348.483 47.1673C349.381 47.1673 350.536 47.3597 351.947 47.7446C353.358 48.1294 354.512 48.5462 355.41 48.9952ZM381.961 47.1673C385.424 47.1673 388.423 47.7606 390.956 48.9471C393.489 50.1335 395.606 51.6888 397.305 53.6128C399.005 55.5368 400.272 57.7495 401.105 60.2507C401.939 62.7519 402.356 65.3173 402.356 67.9468C402.356 70.5121 401.955 73.0454 401.153 75.5466C400.352 78.0479 399.133 80.2926 397.498 82.2807C395.862 84.2689 393.826 85.8722 391.389 87.0908C388.952 88.3093 386.066 88.9186 382.731 88.9186C380.743 88.9186 378.707 88.3895 376.622 87.3313C374.538 86.273 372.662 84.9423 370.994 83.3389V102.194C370.994 102.707 371.059 103.269 371.187 103.878C371.315 104.487 371.524 105.048 371.812 105.561C372.101 106.074 372.421 106.523 372.774 106.908C373.127 107.293 373.56 107.485 374.073 107.485V108.447H361.567V107.485C362.016 107.485 362.433 107.293 362.817 106.908C363.202 106.523 363.539 106.074 363.827 105.561C364.116 105.048 364.324 104.487 364.453 103.878C364.581 103.269 364.645 102.707 364.645 102.194V53.5166C364.645 52.9394 364.629 52.3782 364.597 51.8331C364.565 51.288 364.453 50.807 364.26 50.3901C364.068 49.9732 363.763 49.6205 363.346 49.3319C362.93 49.0433 362.336 48.8669 361.567 48.8028V47.8408H370.994V52.0736C372.277 50.5344 373.832 49.3319 375.66 48.4661C377.488 47.6003 379.588 47.1673 381.961 47.1673ZM382.827 85.6477C385.072 85.5836 387.028 85.0705 388.695 84.1085C390.363 83.1465 391.742 81.8959 392.832 80.3567C393.922 78.8175 394.724 77.1019 395.237 75.2099C395.75 73.318 396.007 71.3459 396.007 69.2936C396.007 66.9847 395.686 64.708 395.045 62.4633C394.403 60.2186 393.473 58.2144 392.255 56.4507C391.036 54.6871 389.545 53.244 387.781 52.1217C386.018 50.9994 384.014 50.4382 381.769 50.4382C380.422 50.4382 379.091 50.6947 377.777 51.2078C376.462 51.7209 375.307 52.4584 374.313 53.4204C373.319 54.3824 372.518 55.5208 371.908 56.8355C371.299 58.1503 370.994 59.6093 370.994 61.2127V73.815C370.994 75.5466 371.347 77.134 372.053 78.577C372.758 80.02 373.672 81.2706 374.794 82.3288C375.917 83.387 377.183 84.2047 378.594 84.7819C380.005 85.3591 381.416 85.6477 382.827 85.6477ZM424.001 88.2452H411.399V87.2832C411.912 87.2832 412.361 87.0908 412.746 86.706C413.13 86.3212 413.467 85.8722 413.756 85.3591C414.044 84.8461 414.253 84.2849 414.381 83.6756C414.509 83.0664 414.573 82.5052 414.573 81.9921V32.7372C414.573 31.6469 414.413 30.6208 414.092 29.6588C413.772 28.6968 412.81 28.1837 411.206 28.1195V27.1575L420.923 24.1753V81.9921C420.923 82.5052 420.987 83.0664 421.115 83.6756C421.243 84.2849 421.452 84.8461 421.74 85.3591C422.029 85.8722 422.35 86.3212 422.702 86.706C423.055 87.0908 423.488 87.2832 424.001 87.2832V88.2452ZM467.965 88.2452H458.634V83.3389L458.153 83.8199C456.549 85.4233 454.705 86.6739 452.621 87.5718C450.537 88.4696 448.019 88.9186 445.069 88.9186C442.825 88.9186 440.9 88.662 439.297 88.149C437.694 87.6359 436.379 86.9144 435.353 85.9844C434.327 85.0545 433.573 83.9803 433.092 82.7617C432.611 81.5432 432.371 80.2605 432.371 78.9137C432.371 76.7331 432.964 74.8091 434.15 73.1416C435.337 71.4741 437.052 69.999 439.297 68.7164C441.542 67.4337 444.283 66.2632 447.522 65.205C450.761 64.1468 454.465 63.1046 458.634 62.0785C458.505 59.5773 457.992 57.5571 457.094 56.0178C456.196 54.4786 455.138 53.2761 453.92 52.4103C452.701 51.5445 451.418 50.9673 450.072 50.6787C448.725 50.3901 447.57 50.2458 446.608 50.2458C444.941 50.2458 443.482 50.5023 442.231 51.0154C440.981 51.5285 439.89 52.1858 438.96 52.9875C438.03 53.7892 437.245 54.655 436.603 55.5849C435.962 56.5149 435.449 57.3967 435.064 58.2305H434.198V51.2078C434.712 51.1437 435.193 50.9833 435.641 50.7268C436.09 50.4702 436.635 50.2137 437.277 49.9572C438.239 49.5724 439.554 49.0112 441.221 48.2737C442.889 47.5361 445.229 47.1673 448.244 47.1673C451.771 47.1673 454.625 47.6163 456.806 48.5142C458.986 49.412 460.67 50.5985 461.856 52.0736C463.043 53.5487 463.828 55.2322 464.213 57.1241C464.598 59.0161 464.79 60.9562 464.79 62.9443V81.9921C464.79 83.2748 465.079 84.4773 465.656 85.5996C466.233 86.722 467.003 87.2832 467.965 87.2832V88.2452ZM457.575 80.2605L458.634 79.1061V65.3493L457.672 65.5417C456.132 65.9265 454.256 66.4396 452.044 67.081C449.831 67.7223 447.731 68.556 445.743 69.5822C443.754 70.6083 442.055 71.8269 440.644 73.2378C439.233 74.6488 438.527 76.2842 438.527 78.1441C438.527 80.1964 439.361 81.8959 441.029 83.2427C442.696 84.5895 444.877 85.2629 447.57 85.2629C449.687 85.2629 451.547 84.798 453.15 83.868C454.753 82.9381 456.229 81.7356 457.575 80.2605ZM497.402 51.1116H486.628V74.296C486.628 75.9635 486.66 77.4707 486.724 78.8175C486.788 80.1643 486.949 81.2866 487.205 82.1845C487.462 83.0824 487.847 83.7718 488.36 84.2528C488.873 84.7338 489.578 84.9743 490.476 84.9743C491.823 84.9743 493.089 84.333 494.276 83.0503C495.462 81.7676 496.216 80.2284 496.537 78.4327H497.402V85.4553C496.825 85.4553 496.344 85.6477 495.959 86.0326C495.446 86.4815 494.725 86.9625 493.795 87.4756C492.865 87.9886 491.47 88.2452 489.61 88.2452C487.301 88.2452 485.506 87.7962 484.223 86.8984C482.94 86.0005 482.01 84.814 481.433 83.3389C480.856 81.8638 480.519 80.2284 480.423 78.4327C480.327 76.6369 480.279 74.8091 480.279 72.9492V51.1116H474.892V47.8408H480.279V39.2789C480.279 38.1886 480.134 37.1785 479.846 36.2485C479.557 35.3186 478.611 34.8216 477.008 34.7574V33.7954L486.628 30.717V47.8408H497.402V51.1116ZM543.29 68.8126H509.909C510.165 71.0573 510.71 73.1897 511.544 75.2099C512.378 77.2302 513.484 79.0099 514.863 80.5491C516.242 82.0883 517.925 83.3229 519.914 84.2528C521.902 85.1828 524.211 85.6477 526.84 85.6477C528.251 85.6477 529.742 85.4393 531.313 85.0224C532.885 84.6056 534.344 84.0123 535.691 83.2427C537.037 82.4731 538.24 81.5271 539.298 80.4048C540.356 79.2824 541.078 78.0158 541.463 76.6048H542.328V83.8199C541.944 83.8199 541.511 83.9482 541.03 84.2047C540.549 84.4613 539.988 84.7819 539.346 85.1667C538.064 85.9363 536.332 86.7541 534.151 87.6199C531.971 88.4857 529.085 88.9186 525.493 88.9186C522.607 88.9186 519.865 88.5017 517.268 87.668C514.671 86.8342 512.378 85.5515 510.39 83.8199C508.401 82.0883 506.814 79.8757 505.628 77.1821C504.441 74.4884 503.848 71.2817 503.848 67.562C503.848 65.189 504.249 62.784 505.051 60.3469C505.852 57.9098 507.071 55.7132 508.706 53.7571C510.341 51.801 512.442 50.2137 515.007 48.9952C517.573 47.7766 520.651 47.1673 524.243 47.1673C527.449 47.1673 530.255 47.7125 532.66 48.8028C535.065 49.893 537.053 51.4002 538.625 53.3242C540.196 55.2482 541.366 57.525 542.136 60.1545C542.906 62.784 543.29 65.67 543.29 68.8126ZM523.858 50.342C521.613 50.342 519.673 50.7909 518.038 51.6888C516.402 52.5867 515.007 53.7411 513.853 55.152C512.699 56.563 511.801 58.1663 511.159 59.9621C510.518 61.7578 510.101 63.5536 509.909 65.3493H537.326C537.262 63.4894 536.925 61.6616 536.316 59.8659C535.707 58.0701 534.857 56.4668 533.766 55.0558C532.676 53.6449 531.297 52.5065 529.63 51.6407C527.962 50.7749 526.038 50.342 523.858 50.342Z" fill="#02143C"/>
<path d="M54.628 78.6443V78.019H54.9455C55.2341 78.019 55.5034 77.8939 55.7535 77.6438C56.0037 77.3937 56.2249 77.1019 56.4173 76.7684C56.6033 76.4349 56.738 76.0693 56.8213 75.6717C56.9047 75.2741 56.9464 74.9085 56.9464 74.575V41.3087C56.9464 41.0201 56.9047 40.6866 56.8213 40.3082C56.738 39.9362 56.6033 39.5739 56.4173 39.2211C56.2249 38.862 55.9941 38.5702 55.7247 38.3457C55.4553 38.1148 55.1539 37.9994 54.8204 37.9994H54.5029V37.3741H64.7579C68.638 37.3741 71.6716 38.2271 73.8586 39.933C76.0455 41.6454 77.139 43.919 77.139 46.7537C77.139 47.9594 76.9306 49.0433 76.5137 50.0053C76.0969 50.9609 75.5677 51.8139 74.9264 52.5642C74.2786 53.3146 73.5796 53.9527 72.8292 54.4786C72.0788 54.9981 71.3702 55.4246 70.7032 55.7581C72.4541 56.0916 73.9131 56.6528 75.0803 57.4416C76.2476 58.2369 77.1967 59.1444 77.9279 60.1641C78.6526 61.1838 79.1625 62.2773 79.4575 63.4446C79.7461 64.6118 79.8904 65.7598 79.8904 66.8885C79.8904 69.0563 79.4959 70.8809 78.7071 72.3624C77.9118 73.8375 76.86 75.0464 75.5517 75.9892C74.237 76.9255 72.7362 77.6021 71.0495 78.019C69.3564 78.4359 67.6151 78.6443 65.8258 78.6443H54.628ZM75.6383 67.9468V67.2637C75.3048 64.0506 74.221 61.5686 72.3867 59.8178C70.5525 58.0669 67.9678 57.1915 64.6329 57.1915H61.1312V76.576H64.7579C68.1378 76.576 70.7962 75.816 72.733 74.296C74.6699 72.7761 75.6383 70.6596 75.6383 67.9468ZM73.0793 47.7542V47.3116C72.9511 44.8938 72.1077 42.9762 70.5492 41.5588C68.9844 40.1415 66.8872 39.4328 64.2577 39.4328H61.1312V55.1905H64.3828C66.1336 55.1905 67.5638 54.9628 68.6733 54.5075C69.7764 54.0457 70.6615 53.4525 71.3285 52.7278C71.9955 51.9966 72.454 51.1918 72.7041 50.3131C72.9543 49.4409 73.0793 48.5879 73.0793 47.7542Z" fill="white"/>
</svg>
