<svg width="13" height="16" viewBox="0 0 13 16" fill="none" xmlns="http://www.w3.org/2000/svg">
<path d="M3.8 6.6H9.4M3.8 12.2H9.4M3.8 9.4H6.6M9.4 1V3.38C9.4 3.49139 9.44425 3.59822 9.52302 3.67698C9.60178 3.75575 9.70861 3.8 9.82 3.8H12.2M1 14.58V1.42C1 1.30861 1.04425 1.20178 1.12302 1.12302C1.20178 1.04425 1.30861 1 1.42 1H9.5764C9.68775 1.0001 9.79451 1.04441 9.8732 1.1232L12.0768 3.3268C12.116 3.36593 12.147 3.41242 12.1682 3.4636C12.1893 3.51477 12.2001 3.56963 12.2 3.625V14.58C12.2 14.6352 12.1891 14.6898 12.168 14.7407C12.1469 14.7917 12.116 14.838 12.077 14.877C12.038 14.916 11.9917 14.9469 11.9407 14.968C11.8898 14.9891 11.8352 15 11.78 15H1.42C1.36484 15 1.31023 14.9891 1.25927 14.968C1.20832 14.9469 1.16202 14.916 1.12302 14.877C1.08401 14.838 1.05308 14.7917 1.03197 14.7407C1.01086 14.6898 1 14.6352 1 14.58Z" stroke="#8C52FF" stroke-linecap="round" stroke-linejoin="round"/>
</svg>
